<svg data-v-4d8de48c="" xmlns="http://www.w3.org/2000/svg" width="36.5" height="36.5" viewBox="0 0 36.5 36.5"><g data-v-4d8de48c="" id="Group_4223" data-name="Group 4223" transform="translate(-1470.25 -4171.25)"><g data-v-4d8de48c="" id="Group_4176" data-name="Group 4176" transform="translate(1476.1 4175.899)"><g data-v-4d8de48c="" id="Group_4175" data-name="Group 4175" transform="translate(0 0)"><g data-v-4d8de48c="" id="Blue_Gird" data-name="Blue Gird" transform="translate(0 0)"><rect data-v-4d8de48c="" id="Rectangle_4122" data-name="Rectangle 4122" width="25.94" height="25.94" transform="translate(25.94 0) rotate(90)" fill="none"></rect></g> <g data-v-4d8de48c="" id="Layer_2" data-name="Layer 2" transform="translate(3.307 0.011)"><g data-v-4d8de48c="" id="Group_4159" data-name="Group 4159" transform="translate(2.701 16.034)"><g data-v-4d8de48c="" id="Group_4156" data-name="Group 4156"><g data-v-4d8de48c="" id="Group_4155" data-name="Group 4155"><path data-v-4d8de48c="" id="Path_1048" data-name="Path 1048" d="M1091.695,3708.5a.415.415,0,0,1-.224-.766l1.734-1.107a.416.416,0,1,1,.447.7l-1.734,1.107A.411.411,0,0,1,1091.695,3708.5Z" transform="translate(-1091.279 -3706.558)" fill="#0394be" stroke="#0394be" stroke-width="0.4"></path></g></g> <g data-v-4d8de48c="" id="Group_4158" data-name="Group 4158" transform="translate(0.022 0.022)"><g data-v-4d8de48c="" id="Group_4157" data-name="Group 4157"><path data-v-4d8de48c="" id="Path_1049" data-name="Path 1049" d="M1091.79,3708.569a.393.393,0,0,1-.212-.725l1.735-1.107a.393.393,0,0,1,.423.663l-1.734,1.106A.386.386,0,0,1,1091.79,3708.569Z" transform="translate(-1091.396 -3706.676)" fill="#0394be" stroke="#0394be" stroke-width="0.4"></path></g></g></g> <g data-v-4d8de48c="" id="Group_4166" data-name="Group 4166" transform="translate(1.792 13.583)"><g data-v-4d8de48c="" id="Group_4162" data-name="Group 4162"><g data-v-4d8de48c="" id="Group_4160" data-name="Group 4160" transform="translate(2.669 2.451)"><path data-v-4d8de48c="" id="Path_1050" data-name="Path 1050" d="M1103.083,3708.5a.411.411,0,0,1-.193-.048l-2.1-1.107a.416.416,0,1,1,.387-.735l2.1,1.107a.416.416,0,0,1-.194.783Z" transform="translate(-1100.564 -3706.558)" fill="#0394be" stroke="#0394be" stroke-width="0.4"></path></g> <g data-v-4d8de48c="" id="Group_4161" data-name="Group 4161"><path data-v-4d8de48c="" id="Path_1051" data-name="Path 1051" d="M1088.716,3706a.416.416,0,0,1-.412-.363l-.976-7.613h-.43a.416.416,0,0,1-.416-.416v-3.564a.416.416,0,0,1,.416-.416h5.312a.416.416,0,0,1,.416.416v3.564a.415.415,0,0,1-.416.416h-.288l-.98,7.613a.416.416,0,1,1-.824-.106l1.026-7.976a.415.415,0,0,1,.412-.362h.237v-2.734h-4.48v2.734h.38a.416.416,0,0,1,.412.363l1.022,7.975a.415.415,0,0,1-.359.465A.4.4,0,0,1,1088.716,3706Z" transform="translate(-1086.483 -3693.628)" fill="#0394be" stroke="#0394be" stroke-width="0.4"></path></g></g> <g data-v-4d8de48c="" id="Group_4165" data-name="Group 4165" transform="translate(0.022 0.022)"><g data-v-4d8de48c="" id="Group_4163" data-name="Group 4163" transform="translate(2.669 2.451)"><path data-v-4d8de48c="" id="Path_1052" data-name="Path 1052" d="M1103.178,3708.568a.393.393,0,0,1-.183-.045l-2.1-1.107a.393.393,0,1,1,.366-.7l2.1,1.106a.394.394,0,0,1-.184.742Z" transform="translate(-1100.681 -3706.674)" fill="#0394be" stroke="#0394be" stroke-width="0.4"></path></g> <g data-v-4d8de48c="" id="Group_4164" data-name="Group 4164"><path data-v-4d8de48c="" id="Path_1053" data-name="Path 1053" d="M1090.627,3706.071a.3.3,0,0,1-.051,0,.393.393,0,0,1-.34-.44l1.026-7.975a.393.393,0,0,1,.39-.343h.26v-2.778h-4.525v2.778h.4a.393.393,0,0,1,.391.343l1.023,7.975a.394.394,0,0,1-.781.1l-.979-7.632h-.449a.394.394,0,0,1-.393-.394v-3.565a.394.394,0,0,1,.393-.394h5.313a.394.394,0,0,1,.394.394v3.565a.394.394,0,0,1-.394.394H1092l-.982,7.632A.394.394,0,0,1,1090.627,3706.071Z" transform="translate(-1086.6 -3693.744)" fill="#0394be" stroke="#0394be" stroke-width="0.4"></path></g></g></g> <g data-v-4d8de48c="" id="Group_4167" data-name="Group 4167" transform="translate(12.557 20.941)"><path data-v-4d8de48c="" id="Path_1054" data-name="Path 1054" d="M1144.249,3737.5a.393.393,0,0,1-.39-.341l-.574-4.262a.413.413,0,0,1,0-.053.394.394,0,0,1,.783-.052l.574,4.262a.393.393,0,0,1-.391.446Z" transform="translate(-1143.282 -3732.449)" fill="#0394be" stroke="#0394be" stroke-width="0.4"></path></g> <g data-v-4d8de48c="" id="Group_4168" data-name="Group 4168" transform="translate(15.275 20.941)"><path data-v-4d8de48c="" id="Path_1055" data-name="Path 1055" d="M1158.014,3737.5a.389.389,0,0,1-.053,0,.393.393,0,0,1-.338-.442l.574-4.262a.394.394,0,0,1,.78.105l-.574,4.262A.393.393,0,0,1,1158.014,3737.5Z" transform="translate(-1157.62 -3732.449)" fill="#0394be" stroke="#0394be" stroke-width="0.4"></path></g> <g data-v-4d8de48c="" id="Group_4169" data-name="Group 4169"><path data-v-4d8de48c="" id="Path_1056" data-name="Path 1056" d="M1077.425,3637.059a.453.453,0,0,1-.078-.008.394.394,0,0,1-.308-.463l1.293-6.427a2.919,2.919,0,0,1,1.439-2.052l2.851-1.63a1.908,1.908,0,0,0,1.15-2.139,1.936,1.936,0,0,0-3.809.7,1.918,1.918,0,0,0,.349.8,2.045,2.045,0,0,0,.183.212c.026.027.054.052.08.076l.175.138a.394.394,0,0,1-.487.618l-.185-.146-.018-.015c-.042-.038-.083-.076-.123-.116a2.722,2.722,0,1,1,3.064.558l-2.84,1.624a2.142,2.142,0,0,0-1.055,1.512l-1.295,6.439A.394.394,0,0,1,1077.425,3637.059Z" transform="translate(-1077.031 -3621.965)" fill="#0394be" stroke="#0394be" stroke-width="0.4"></path></g> <g data-v-4d8de48c="" id="Group_4170" data-name="Group 4170" transform="translate(11.02 14.691)"><path data-v-4d8de48c="" id="Path_1057" data-name="Path 1057" d="M1141.006,3706.5h-4.427a1.406,1.406,0,1,1,0-2.812h3.555a.394.394,0,0,1,0,.787h-3.555a.619.619,0,1,0,0,1.238h4.427a.515.515,0,0,0,.384-.192.851.851,0,0,0,.167-.687l-.535-3.231a1.752,1.752,0,0,0-.864-1.241l-.267-.153a.393.393,0,1,1,.391-.683l.266.152a2.538,2.538,0,0,1,1.25,1.8l.536,3.236a1.64,1.64,0,0,1-.348,1.324A1.3,1.3,0,0,1,1141.006,3706.5Z" transform="translate(-1135.173 -3699.475)" fill="#0394be" stroke="#0394be" stroke-width="0.4"></path></g> <g data-v-4d8de48c="" id="Group_4171" data-name="Group 4171" transform="translate(5.752 5.741)"><path data-v-4d8de48c="" id="Path_1058" data-name="Path 1058" d="M1113.269,3665.226a.394.394,0,0,1-.321-.166l-2.57-3.619a.4.4,0,0,1-.067-.163l-1.066-6.424a2.142,2.142,0,0,0-1.056-1.515l-.612-.35a.394.394,0,0,1,.391-.684l.612.35a2.925,2.925,0,0,1,1.441,2.069l1.051,6.334,1.966,2.769.105-.627a2.539,2.539,0,0,1,1.25-1.792l2.415-1.381a1.583,1.583,0,1,0-2.164-1.179,1.562,1.562,0,0,0,.285.656,1.519,1.519,0,0,0,.15.174q.036.036.072.068a.393.393,0,1,1-.522.588c-.037-.032-.073-.066-.108-.1a2.28,2.28,0,0,1-.224-.26,2.342,2.342,0,0,1-.427-.983,2.367,2.367,0,1,1,4.656-.854,2.335,2.335,0,0,1-1.34,2.58l-2.4,1.375a1.754,1.754,0,0,0-.864,1.239l-.262,1.567a.394.394,0,0,1-.388.328Z" transform="translate(-1107.38 -3652.254)" fill="#0394be" stroke="#0394be" stroke-width="0.4"></path></g> <g data-v-4d8de48c="" id="Group_4172" data-name="Group 4172" transform="translate(1.814 12.761)"><path data-v-4d8de48c="" id="Path_1059" data-name="Path 1059" d="M1086.993,3690.921a.393.393,0,0,1-.393-.394v-.844a.393.393,0,1,1,.787,0v.844A.393.393,0,0,1,1086.993,3690.921Z" transform="translate(-1086.6 -3689.29)" fill="#0394be" stroke="#0394be" stroke-width="0.4"></path></g> <g data-v-4d8de48c="" id="Group_4173" data-name="Group 4173" transform="translate(7.126 12.751)"><path data-v-4d8de48c="" id="Path_1060" data-name="Path 1060" d="M1115.021,3690.879a.393.393,0,0,1-.393-.394v-.854a.393.393,0,0,1,.787,0v.854A.394.394,0,0,1,1115.021,3690.879Z" transform="translate(-1114.628 -3689.238)" fill="#0394be" stroke="#0394be" stroke-width="0.4"></path></g> <g data-v-4d8de48c="" id="Group_4174" data-name="Group 4174" transform="translate(15.668 25.842)"><path data-v-4d8de48c="" id="Path_1061" data-name="Path 1061" d="M1159.7,3758.307" transform="translate(-1159.696 -3758.307)" fill="#0394be" stroke="#0394be" stroke-linecap="round" stroke-linejoin="round" stroke-width="0.4"></path></g></g></g></g> <path data-v-4d8de48c="" id="Path_1092" data-name="Path 1092" d="M1146.1,3910.174a18,18,0,1,0,13.232,30.2c.361-.392.709-.8,1.033-1.224a.547.547,0,0,0-.061-.734,2.924,2.924,0,0,0-.495-.36c-.215.3-.437.591-.67.875h0c-.136.164-.278.321-.42.48-.04.045-.079.092-.12.137-.025.028-.049.058-.074.086-.113.122-.232.239-.348.358-.055.055-.108.111-.162.166-.126.126-.256.247-.386.368-.08.075-.16.151-.242.225-.111.1-.225.2-.338.292s-.221.187-.334.279c-.091.073-.183.145-.275.216q-.219.17-.443.332l-.2.14q-.281.2-.569.382l-.1.063a16.8,16.8,0,0,1-7.127,2.511c-.056.006-.112.016-.169.021-.072.007-.144.011-.216.017-.505.045-1.013.074-1.524.074-.246,0-.489-.011-.732-.021-.049,0-.1,0-.146,0-.188-.01-.374-.027-.56-.043-.117-.009-.235-.018-.351-.03-.165-.018-.329-.041-.493-.063-.137-.019-.275-.036-.411-.058s-.294-.052-.441-.079-.305-.058-.457-.092c-.131-.028-.26-.059-.39-.089q-.254-.062-.5-.13-.166-.045-.331-.094c-.191-.056-.38-.118-.569-.181-.084-.028-.169-.056-.252-.085-.229-.081-.456-.168-.681-.259l-.124-.049a16.96,16.96,0,0,1-8.222-7.227l-.044-.075q-.142-.25-.275-.5c-.021-.04-.041-.081-.062-.121q-.373-.726-.676-1.491c-.037-.093-.075-.186-.11-.28-.045-.119-.086-.24-.128-.36s-.086-.249-.127-.375q-.052-.16-.1-.322c-.047-.156-.091-.312-.134-.47-.022-.083-.046-.165-.067-.249q-.192-.757-.314-1.541c-.007-.044-.012-.088-.019-.132-.034-.226-.062-.454-.087-.682-.005-.048-.01-.1-.015-.144-.024-.246-.043-.494-.057-.743,0-.021,0-.043,0-.064-.014-.282-.024-.565-.024-.851a16.906,16.906,0,1,1,33.813,0c0,.286-.009.571-.024.855,0,.009,0,.018,0,.027-.014.278-.035.555-.063.831,0,.017,0,.034-.006.051-.025.244-.057.487-.093.729-.006.041-.011.081-.017.121q-.056.356-.127.709c-.013.068-.028.135-.042.2q-.063.3-.137.592c-.011.046-.021.091-.033.137-.059.226-.124.45-.191.674-.02.064-.04.13-.061.194-.073.231-.15.461-.233.688v0c-.088.242-.184.481-.283.719l-.034.081a16.874,16.874,0,0,1-.791,1.62.547.547,0,0,0,.955.534,18.006,18.006,0,0,0-15.724-26.768Z" transform="translate(342.396 261.326)" fill="#0394be" stroke="#0394be" stroke-width="0.5"></path></g></svg>