<svg data-v-4d8de48c="" xmlns="http://www.w3.org/2000/svg" width="100.787" height="36" viewBox="0 0 100.787 36"><g data-v-4d8de48c="" transform="translate(-1537.057 -4101.998)"><g data-v-4d8de48c="" transform="translate(1537.057 4102)"><path data-v-4d8de48c="" d="M276.245,191.127a2.084,2.084,0,0,0,2.207,1.724,1.775,1.775,0,0,0,1.677-2.02,2.06,2.06,0,0,0-2.206-1.725A1.776,1.776,0,0,0,276.245,191.127Z" transform="translate(-276.227 -165.711)" fill="#0394be"></path> <path data-v-4d8de48c="" d="M309.276,181.627a1.254,1.254,0,0,0-1.066,1.554,1.963,1.963,0,0,0,1.977,1.271,1.241,1.241,0,0,0,1.068-1.554A1.964,1.964,0,0,0,309.276,181.627Z" transform="translate(-299.796 -160.185)" fill="#0394be"></path> <path data-v-4d8de48c="" d="M320.985,106.162c8.127-.049,9.866-4.606,5.986-6.181-1.032-.419-3.066.358-3.942.827-1.973,1.058-3.9,2.539-5.117,2.092-1.142-.419,1.612-3.288-1.5-3.017a23.213,23.213,0,0,0-8.943,2.759c-4.513,2.309-8.077,8.161-7.015,12.75.677,3.212,4.3,5.343,7.893,5.821,3.023.4,5.923,1.932,4.609,4.171a3.506,3.506,0,0,1-3.8,1.217,16.133,16.133,0,0,1-3.867-1.921c-2.634-1.279-1.676,2.532-2.5,3.359-1.28,1.28-2.227-.414-3.168-1.341-2.965-2.877-6.407,1.614-2.823,3.407a12.826,12.826,0,0,0,3.738.992c1.045.209,1.3.3,1.408.719.091.488-.431.685-1.108.966s-2.044.389-2.288,1.314c-.3,1.13,2.161,1.592,3.777,1.649a17.993,17.993,0,0,0,11.326-3.562c4.049-2.727,6.132-7.375,5.982-10.909-.159-3.743-4.367-6.2-8.237-6.3-1.849-.049-3.511-.82-3.6-2.287-.091-1.788,1.473-4.023,4.866-3.358s4.8,2.344,7.884,2.287c2.2-.04,3.76-2.47.1-3.7A.906.906,0,0,1,320.985,106.162Zm-9.772-.062a13.349,13.349,0,0,0-9.267,6.231.125.125,0,0,1-.224-.112c.566-1.71,2.247-5.142,7.013-7.626C312.872,102.438,314.639,105.457,311.213,106.1Z" transform="translate(-290.277 -99.862)" fill="#0394be"></path></g> <g data-v-4d8de48c="" transform="translate(14.145 -16.473)"><g data-v-4d8de48c="" transform="translate(1568.855 4118.471)"><path data-v-4d8de48c="" d="M397.559,171.237l.761-.7a3.323,3.323,0,0,0,2.932,1.628,2.057,2.057,0,0,0,2.246-1.956c0-.806-.457-1.284-1.827-1.912-1.637-.761-2.437-1.433-2.437-2.792a2.862,2.862,0,0,1,.685-1.911,3.3,3.3,0,0,1,2.589-1.12,3.816,3.816,0,0,1,3.148,1.583l-.736.776a3.038,3.038,0,0,0-2.5-1.3,1.943,1.943,0,0,0-2.133,1.836c0,.851.572,1.284,1.967,1.926,1.523.687,2.3,1.418,2.3,2.763a3.125,3.125,0,0,1-.723,2.016,3.4,3.4,0,0,1-2.64,1.15A4.065,4.065,0,0,1,397.559,171.237Z" transform="translate(-397.559 -162.471)" fill="#005ea9"></path> <path data-v-4d8de48c="" d="M417.2,162.78h2.779a3.179,3.179,0,0,1,2.538.971,2.952,2.952,0,0,1,.634,1.941,3.676,3.676,0,0,1-.838,2.449,4.478,4.478,0,0,1-3.54,1.374h-2.107l-.851,3.718h-1Zm2.741,1.09h-1.992l-1.041,4.6h1.916a3.458,3.458,0,0,0,2.728-1,2.538,2.538,0,0,0,.559-1.7,1.888,1.888,0,0,0-.406-1.254A2.2,2.2,0,0,0,419.946,163.87Z" transform="translate(-406.506 -162.631)" fill="#005ea9"></path> <path data-v-4d8de48c="" d="M434.78,162.78h1l-2.132,9.363h5l-.254,1.09h-6Z" transform="translate(-415.617 -162.631)" fill="#005ea9"></path> <path data-v-4d8de48c="" d="M452.991,162.625h.964l1.65,10.528h-1.028l-.406-2.763h-4.848l-1.675,2.763h-1.1Zm1.015,6.69-.8-5.346-3.25,5.346Z" transform="translate(-422.952 -162.551)" fill="#005ea9"></path> <path data-v-4d8de48c="" d="M467.7,171.237l.761-.7a3.322,3.322,0,0,0,2.932,1.628,2.057,2.057,0,0,0,2.246-1.956c0-.806-.457-1.284-1.827-1.912-1.638-.761-2.437-1.433-2.437-2.792a2.864,2.864,0,0,1,.685-1.911,3.3,3.3,0,0,1,2.589-1.12,3.815,3.815,0,0,1,3.147,1.583l-.736.776a3.038,3.038,0,0,0-2.5-1.3,1.943,1.943,0,0,0-2.133,1.836c0,.851.571,1.284,1.967,1.926,1.523.687,2.3,1.418,2.3,2.763a3.125,3.125,0,0,1-.723,2.016,3.4,3.4,0,0,1-2.64,1.15A4.064,4.064,0,0,1,467.7,171.237Z" transform="translate(-433.919 -162.471)" fill="#005ea9"></path> <path data-v-4d8de48c="" d="M487.347,162.78h1l-1.053,4.644h5.064l1.053-4.644h1.016l-2.386,10.453h-1.016l1.079-4.7h-5.064l-1.079,4.7h-1Z" transform="translate(-442.866 -162.631)" fill="#005ea9"></path> <path data-v-4d8de48c="" d="M400.42,190.78H403.2a3.179,3.179,0,0,1,2.539.971,2.952,2.952,0,0,1,.634,1.941,3.679,3.679,0,0,1-.838,2.449,4.479,4.479,0,0,1-3.541,1.374h-2.107l-.85,3.718h-1Zm2.741,1.09h-1.992l-1.041,4.6h1.917a3.458,3.458,0,0,0,2.728-1,2.538,2.538,0,0,0,.559-1.7,1.887,1.887,0,0,0-.407-1.254A2.2,2.2,0,0,0,403.161,191.87Z" transform="translate(-397.805 -177.146)" fill="#005ea9"></path> <path data-v-4d8de48c="" d="M418.867,190.625h.964l1.65,10.528h-1.028l-.406-2.763H415.2l-1.676,2.763h-1.1Zm1.015,6.69-.8-5.346-3.249,5.346Z" transform="translate(-405.263 -177.065)" fill="#005ea9"></path> <path data-v-4d8de48c="" d="M433.58,199.237l.761-.7a3.322,3.322,0,0,0,2.932,1.628,2.057,2.057,0,0,0,2.247-1.956c0-.806-.458-1.284-1.828-1.912-1.638-.761-2.437-1.433-2.437-2.792a2.864,2.864,0,0,1,.685-1.911,3.3,3.3,0,0,1,2.589-1.12,3.815,3.815,0,0,1,3.147,1.583l-.736.776a3.039,3.039,0,0,0-2.5-1.3,1.943,1.943,0,0,0-2.132,1.836c0,.852.571,1.285,1.967,1.926,1.523.687,2.3,1.418,2.3,2.763a3.125,3.125,0,0,1-.723,2.016,3.4,3.4,0,0,1-2.64,1.15A4.064,4.064,0,0,1,433.58,199.237Z" transform="translate(-416.231 -176.986)" fill="#005ea9"></path> <path data-v-4d8de48c="" d="M450.1,199.237l.761-.7a3.323,3.323,0,0,0,2.932,1.628,2.057,2.057,0,0,0,2.247-1.956c0-.806-.457-1.284-1.828-1.912-1.637-.761-2.437-1.433-2.437-2.792a2.861,2.861,0,0,1,.685-1.911,3.3,3.3,0,0,1,2.589-1.12,3.816,3.816,0,0,1,3.148,1.583l-.736.776a3.038,3.038,0,0,0-2.5-1.3,1.943,1.943,0,0,0-2.133,1.836c0,.852.572,1.285,1.967,1.926,1.523.687,2.3,1.418,2.3,2.763a3.125,3.125,0,0,1-.723,2.016,3.4,3.4,0,0,1-2.64,1.15A4.065,4.065,0,0,1,450.1,199.237Z" transform="translate(-424.796 -176.986)" fill="#005ea9"></path></g> <g data-v-4d8de48c="" transform="translate(1568.855 4145.146)"><path data-v-4d8de48c="" d="M402.355,221.208a17.507,17.507,0,0,1-3.481,4.512c-.234.221-.484.462-.732.662a.535.535,0,0,1-.316.141.261.261,0,0,1-.257-.341.578.578,0,0,1,.207-.291c.375-.331.748-.652,1.11-1a14.55,14.55,0,0,0,2.913-3.981.652.652,0,0,0,.052-.13c.034-.131-.042-.16-.154-.16h-2.1c-.215,0-.377-.131-.313-.371a.519.519,0,0,1,.51-.381h2.21c.495,0,.686.3.551.822A2.337,2.337,0,0,1,402.355,221.208Zm3.367,5.646a.282.282,0,0,1-.246-.13,11.072,11.072,0,0,1-1.987-5.254L402.308,226a1.573,1.573,0,0,1-1.489,1.2,2.041,2.041,0,0,1-1.341-.542.344.344,0,0,1-.095-.351.5.5,0,0,1,.435-.381.332.332,0,0,1,.235.1,1.414,1.414,0,0,0,.934.421.659.659,0,0,0,.675-.55l1.98-7.59a.5.5,0,0,1,.443-.411c.214,0,.286.19.228.411-.1.381-.206.751-.3,1.132,0,.011.008.221.011.241a14.438,14.438,0,0,0,.233,2.186.572.572,0,0,1,.2-.261c.143-.12.293-.23.434-.341.335-.281.653-.571.964-.872.278-.28.553-.581.815-.872.13-.141.253-.29.383-.431a.5.5,0,0,1,.358-.19.24.24,0,0,1,.233.321.466.466,0,0,1-.108.2,20.978,20.978,0,0,1-2.749,2.708.493.493,0,0,1-.3.13.248.248,0,0,1-.162-.06,10.642,10.642,0,0,0,1.154,3.048c.2.321.409.611.617.922a.375.375,0,0,1,.065.321A.494.494,0,0,1,405.723,226.854Z" transform="translate(-397.559 -217.88)" fill="#0099bc"></path> <path data-v-4d8de48c="" d="M421.128,226.752a.273.273,0,0,1-.3-.361.5.5,0,0,1,.486-.361h2.826l2.025-7.76a.5.5,0,0,1,.443-.411c.214,0,.286.191.229.411l-.665,2.547h4.038a.275.275,0,0,1,.295.37.5.5,0,0,1-.488.371H425.98l-1.167,4.472h4.375a.268.268,0,0,1,.288.361.489.489,0,0,1-.476.361Z" transform="translate(-409.616 -217.858)" fill="#0099bc"></path> <path data-v-4d8de48c="" d="M452.026,227.052h-3.786a2.6,2.6,0,0,1-2.4-1.153c-.308.321-1.481,1.424-1.845,1.424-.2,0-.293-.2-.241-.4a.411.411,0,0,1,.187-.251,5.551,5.551,0,0,0,2.319-2.6,1.808,1.808,0,0,0,.071-.2c.05-.19,0-.3-.173-.3h-.634a.4.4,0,0,1-.4-.551,1.053,1.053,0,0,1,.237-.411c.417-.451.848-.892,1.249-1.354a.493.493,0,0,0,.1-.17c.032-.121-.042-.161-.135-.161h-.868c-.186,0-.289-.14-.237-.341a.455.455,0,0,1,.42-.361h1.259c.363,0,.536.271.433.662a1.18,1.18,0,0,1-.251.461c-.393.472-.829.892-1.236,1.343a.25.25,0,0,0-.064.1c-.018.07.044.08.091.08a3.988,3.988,0,0,0,.485,0c.466,0,.623.291.493.792a7.366,7.366,0,0,1-.693,1.474,2.136,2.136,0,0,0,.337.532l1.159-4.442a1.062,1.062,0,0,1,.965-.872h1.016c-.179-.1-.375-.171-.543-.281a.25.25,0,0,1-.1-.3.515.515,0,0,1,.419-.392,5.771,5.771,0,0,1,1.066.562,9.435,9.435,0,0,0,1.366-.732c.011-.04-.065-.04-.083-.04H448.57c-.2,0-.285-.161-.233-.361a.437.437,0,0,1,.416-.341H452.6c.336,0,.624.18.517.591a1.076,1.076,0,0,1-.441.581,7.547,7.547,0,0,1-1.268.713h1.324c.476,0,.685.34.552.851l-1.041,3.991a1.21,1.21,0,0,1-1.188.943,2.032,2.032,0,0,1-.867-.181.269.269,0,0,1-.135-.341.527.527,0,0,1,.431-.4c.177,0,.51.19.753.19a.383.383,0,0,0,.369-.311l.175-.671h-1.781l-.392,1.5a.441.441,0,0,1-.429.321.236.236,0,0,1-.251-.321l.392-1.5h-1.595l-.356,1.364a.493.493,0,0,1-.161.26,2.64,2.64,0,0,0,1.3.291h3.7c.2,0,.3.151.242.361A.442.442,0,0,1,452.026,227.052Zm-4.9-6.988a.257.257,0,0,1-.2-.11l-.64-.943a.288.288,0,0,1-.041-.24.52.52,0,0,1,.442-.371.219.219,0,0,1,.188.1l.641.943a.306.306,0,0,1,.037.25A.518.518,0,0,1,447.125,220.063Zm2.63,2.717h-1.6l-.238.912h1.6Zm.445-1.7h-1.315a.382.382,0,0,0-.361.311l-.172.662h1.595Zm2.017,1.7h-1.781l-.238.912h1.781Zm.358-1.374c.053-.2,0-.331-.193-.331h-1.5l-.254.972h1.781Z" transform="translate(-421.496 -218.138)" fill="#0099bc"></path> <path data-v-4d8de48c="" d="M469.736,226.774a.5.5,0,0,1-.443.411c-.215,0-.286-.191-.229-.411l.9-3.439c-.21.2-.431.4-.655.581a.511.511,0,0,1-.313.131.263.263,0,0,1-.254-.351.574.574,0,0,1,.207-.29,10.131,10.131,0,0,0,2.451-2.748.49.49,0,0,1,.383-.251.26.26,0,0,1,.253.352,10.054,10.054,0,0,1-1.146,1.6Zm-.2-5.665a.591.591,0,0,1,.216-.29c.155-.131.317-.251.472-.381a7.347,7.347,0,0,0,1.471-1.7c.109-.17.212-.351.325-.531a.479.479,0,0,1,.385-.261.253.253,0,0,1,.257.341.424.424,0,0,1-.065.14,9.915,9.915,0,0,1-2.5,2.908.452.452,0,0,1-.3.121A.26.26,0,0,1,469.535,221.11Zm5.713,4.913a1.5,1.5,0,0,1-1.506,1.093,4.21,4.21,0,0,1-1.735-.5.292.292,0,0,1-.148-.361.512.512,0,0,1,.445-.381.434.434,0,0,1,.157.04,3.516,3.516,0,0,0,1.439.491.664.664,0,0,0,.714-.521l1.122-4.3h-3.479a.273.273,0,0,1-.3-.361.5.5,0,0,1,.485-.361h5.073a.268.268,0,0,1,.288.361.49.49,0,0,1-.476.361h-.923Zm-1.864-6.688c-.206,0-.358-.13-.3-.361a.5.5,0,0,1,.485-.361h4.252a.268.268,0,0,1,.288.361.489.489,0,0,1-.476.361Z" transform="translate(-434.451 -217.901)" fill="#0099bc"></path> <path data-v-4d8de48c="" d="M492.63,227.3h-.745c-.495,0-.694-.2-.55-.752l.542-2.075a.8.8,0,0,1,.855-.672h.849c.467,0,.653.18.517.7l-.525,2.016A.909.909,0,0,1,492.63,227.3Zm.819-2.637c.06-.23.018-.321-.206-.321h-.457c-.215,0-.315.1-.373.321l-.457,1.755c-.07.271-.015.341.237.341h.392c.223,0,.335-.07.4-.321Zm-1.021-1.524a.19.19,0,0,1-.193-.261.349.349,0,0,1,.329-.261h1.641c.14,0,.213.11.174.261a.338.338,0,0,1-.31.261Zm7.981-.812a.263.263,0,0,1-.178-.07,6.182,6.182,0,0,1-1.934-2.918,7.209,7.209,0,0,1-1.933,1.975.22.22,0,0,1,.077-.01h2.742a.2.2,0,0,1,.2.27.368.368,0,0,1-.344.281H496.3c-.15,0-.23-.12-.188-.281a.333.333,0,0,1,.05-.12,6.811,6.811,0,0,1-1.445.822.217.217,0,0,1-.192-.3.429.429,0,0,1,.061-.13c-.027,0-.058.01-.086.01h-1.781a.187.187,0,0,1-.193-.261.351.351,0,0,1,.322-.271h1.781c.149,0,.223.11.181.271a.518.518,0,0,1-.048.11,10.248,10.248,0,0,0,1.458-.943c-.206-.281-.452-.521-.682-.782a.234.234,0,0,1-.054-.221.471.471,0,0,1,.394-.331.236.236,0,0,1,.159.07,7.042,7.042,0,0,1,.711.812,6.782,6.782,0,0,0,.906-.972c.021-.08-.069-.09-.126-.09h-1.287c-.149,0-.221-.121-.181-.271a.356.356,0,0,1,.325-.281h1.437a.522.522,0,0,1,.451.2.419.419,0,0,1,.344-.21.231.231,0,0,1,.239.19c.061.231.115.451.2.672.305-.24.6-.5.9-.742a.385.385,0,0,1,.253-.11.225.225,0,0,1,.207.311.458.458,0,0,1-.15.221c-.318.291-.669.561-1.007.822a4.293,4.293,0,0,0,.215.391c.359-.3.7-.6,1.041-.913a.424.424,0,0,1,.267-.13.229.229,0,0,1,.2.311.423.423,0,0,1-.127.2c-.347.331-.73.652-1.1.953a6.736,6.736,0,0,0,.918.882.253.253,0,0,1,.094.281A.416.416,0,0,1,500.41,222.331Zm-7.6-1.735a.2.2,0,0,1-.2-.281.353.353,0,0,1,.332-.271h2.173a.2.2,0,0,1,.2.271.368.368,0,0,1-.343.281Zm.288-1.493a.333.333,0,0,1,.313-.271h2.08c.14,0,.192.12.156.261a.33.33,0,0,1-.294.271l-2.083.01C493.124,219.373,493.062,219.253,493.1,219.1Zm.563,8.031a.2.2,0,0,1-.2-.271.369.369,0,0,1,.344-.281h1.52c.04-.51.071-1.022.08-1.523-.5,0-1.067.05-.876-.682l.306-1.173a.831.831,0,0,1,.88-.692h3.572c.429,0,.616.21.494.682l-.309,1.183c-.178.682-.635.682-1.128.682-.237.51-.472,1.022-.734,1.523h1.809a.2.2,0,0,1,.2.271.368.368,0,0,1-.344.281Zm5.462-3.74c.07-.271,0-.341-.238-.341H495.82c-.243,0-.348.081-.416.341l-.211.812c-.068.261-.01.321.233.321h3.105c.224,0,.319-.08.382-.321Zm-3.055,1.665c-.019.5-.041,1.013-.09,1.523h.979c.252-.5.5-1.013.724-1.523Z" transform="translate(-446.147 -218.29)" fill="#0099bc"></path></g></g></g></svg>