<svg data-v-4d8de48c="" xmlns="http://www.w3.org/2000/svg" width="28.321" height="20.75" viewBox="0 0 28.321 20.75"><g data-v-4d8de48c="" transform="translate(1.5 1.25)"><path data-v-4d8de48c="" d="M308.068,153.688a.768.768,0,0,1-.1-1.531,16.783,16.783,0,0,0,6.122-1.853c1.39-.81,2.155-1.762,2.155-2.681a3.234,3.234,0,0,0-1.647-2.358.768.768,0,1,1,.871-1.266,4.536,4.536,0,0,1,2.313,3.625c0,1.51-1.009,2.9-2.918,4.008a18.063,18.063,0,0,1-6.7,2.05A.813.813,0,0,1,308.068,153.688Zm0,0" transform="translate(-291.466 -136.948)" fill="#fff" stroke="#fff" stroke-width="1"></path> <path data-v-4d8de48c="" d="M12.117,148.024h-.028A21.642,21.642,0,0,1,3.728,146.2C1.324,145.047,0,143.472,0,141.767c0-1.039.495-2.571,2.852-3.968a.768.768,0,1,1,.784,1.322c-1.354.8-2.1,1.742-2.1,2.646,0,1.066,1.041,2.178,2.857,3.051a20.1,20.1,0,0,0,7.75,1.67.768.768,0,0,1-.027,1.536Zm0,0" transform="translate(-1 -131.091)" fill="#fff" stroke="#fff" stroke-width="1"></path> <path data-v-4d8de48c="" d="M187.5,275.4a.768.768,0,0,1-.543-1.312l1.506-1.506-1.506-1.506a.768.768,0,1,1,1.087-1.087l2.049,2.049a.769.769,0,0,1,0,1.087l-2.049,2.049A.767.767,0,0,1,187.5,275.4Zm0,0" transform="translate(-178.169 -256.399)" fill="#fff" stroke="#fff" stroke-width="1"></path> <path data-v-4d8de48c="" d="M96.706,95.106v-.185c0-.652-.4-.779-.934-.779-.331,0-.438-.292-.438-.584s.107-.584.438-.584c.37,0,.759-.049.759-.837,0-.564-.321-.7-.72-.7-.477,0-.72.117-.72.5,0,.331-.146.555-.711.555-.7,0-.788-.146-.788-.613,0-.759.545-1.742,2.219-1.742,1.236,0,2.17.448,2.17,1.762a1.709,1.709,0,0,1-.749,1.6,1.411,1.411,0,0,1,.993,1.431v.185c0,1.6-1.1,2.2-2.462,2.2-1.674,0-2.316-1.022-2.316-1.839,0-.438.185-.555.72-.555.623,0,.779.136.779.506,0,.457.428.564.866.564C96.472,95.982,96.706,95.739,96.706,95.106Zm0,0" transform="translate(-89.112 -86.516)" fill="#fff" stroke="#fff" stroke-width="0.5"></path> <path data-v-4d8de48c="" d="M213.552,94.921v.088a2.391,2.391,0,0,1-4.779,0V92.43c0-1.674,1.08-2.3,2.482-2.3,1.645,0,2.3,1.022,2.3,1.83,0,.467-.224.613-.711.613-.418,0-.788-.107-.788-.555,0-.37-.389-.564-.847-.564-.574,0-.915.3-.915.973v.876a1.557,1.557,0,0,1,1.217-.428A1.824,1.824,0,0,1,213.552,94.921Zm-3.261.195c0,.672.331.963.876.963s.866-.292.866-.963v-.088c0-.711-.321-.983-.876-.983a.781.781,0,0,0-.866.9Zm0,0" transform="translate(-198.532 -86.516)" fill="#fff" stroke="#fff" stroke-width="0.5"></path> <g data-v-4d8de48c="" transform="translate(12.727 -1)"><path data-v-4d8de48c="" d="M259.6,145.843v-.088a1.824,1.824,0,0,0-2.044-2.044c-.084,0-.167,0-.249.01v1.162c.492.032.775.314.775.98v.088c0,.633-.286.928-.775.96v1.228A2.09,2.09,0,0,0,259.6,145.843Zm0,0" transform="translate(-257.304 -136.349)" fill="#fff" stroke="#fff" stroke-width="0.5"></path> <path data-v-4d8de48c="" d="M257.3,90.133v1.325c.434.014.794.208.794.563,0,.448.37.555.788.555.487,0,.711-.146.711-.613C259.594,91.155,258.943,90.135,257.3,90.133Zm0,0" transform="translate(-257.301 -85.516)" fill="#fff" stroke="#fff" stroke-width="0.5"></path> <path data-v-4d8de48c="" d="M325.055,95.009V92.43a2.391,2.391,0,0,1,4.779,0v2.579a2.391,2.391,0,0,1-4.779,0Zm3.26-2.579c0-.672-.331-.973-.876-.973s-.866.3-.866.973v2.579c0,.672.321.973.866.973s.876-.3.876-.973Zm0,0" transform="translate(-321.584 -85.516)" fill="#fff" stroke="#fff" stroke-width="0.5"></path> <path data-v-4d8de48c="" d="M411.657,4.61a2.305,2.305,0,1,1,2.305-2.305A2.308,2.308,0,0,1,411.657,4.61Zm0-3.073a.768.768,0,1,0,.768.768A.769.769,0,0,0,411.657,1.537Zm0,0" transform="translate(-401.563)" fill="#fff" stroke="#fff" stroke-width="0.5"></path></g></g></svg>