<svg data-v-4d8de48c="" xmlns="http://www.w3.org/2000/svg" width="36.5" height="36.5" viewBox="0 0 36.5 36.5"><g data-v-4d8de48c="" id="Group_4221" data-name="Group 4221" transform="translate(-1297.75 -4135.75)"><g data-v-4d8de48c="" id="Group_4201" data-name="Group 4201" transform="translate(1304.8 4141.4)"><g data-v-4d8de48c="" id="Group_4198" data-name="Group 4198" transform="translate(0 0)"><g data-v-4d8de48c="" id="Group_4197" data-name="Group 4197" transform="translate(0 0)"><g data-v-4d8de48c="" id="Group_4181" data-name="Group 4181" transform="translate(2.195 14.056)"><g data-v-4d8de48c="" id="Group_4178" data-name="Group 4178"><g data-v-4d8de48c="" id="Group_4177" data-name="Group 4177"><path data-v-4d8de48c="" id="Path_1062" data-name="Path 1062" d="M838.363,693.911a.364.364,0,0,1-.2-.671l1.519-.969a.364.364,0,0,1,.391.613l-1.519.969A.361.361,0,0,1,838.363,693.911Z" transform="translate(-837.999 -692.214)" fill="#0394be" stroke="#0394be" stroke-width="0.4"></path></g></g> <g data-v-4d8de48c="" id="Group_4180" data-name="Group 4180" transform="translate(0.031 0.031)"><g data-v-4d8de48c="" id="Group_4179" data-name="Group 4179"><path data-v-4d8de48c="" id="Path_1063" data-name="Path 1063" d="M838.509,694.025a.333.333,0,0,1-.179-.614l1.519-.969a.333.333,0,0,1,.358.562l-1.519.969A.331.331,0,0,1,838.509,694.025Z" transform="translate(-838.175 -692.39)" fill="#0394be" stroke="#0394be" stroke-width="0.4"></path></g></g></g> <g data-v-4d8de48c="" id="Group_4188" data-name="Group 4188" transform="translate(1.4 11.911)"><g data-v-4d8de48c="" id="Group_4184" data-name="Group 4184"><g data-v-4d8de48c="" id="Group_4182" data-name="Group 4182" transform="translate(2.336 2.145)"><path data-v-4d8de48c="" id="Path_1064" data-name="Path 1064" d="M848.995,693.91a.361.361,0,0,1-.169-.042l-1.841-.969a.364.364,0,0,1,.339-.644l1.842.969a.364.364,0,0,1-.17.686Z" transform="translate(-846.789 -692.213)" fill="#0394be" stroke="#0394be" stroke-width="0.4"></path></g> <g data-v-4d8de48c="" id="Group_4183" data-name="Group 4183"><path data-v-4d8de48c="" id="Path_1065" data-name="Path 1065" d="M835.415,691.754a.364.364,0,0,1-.361-.323l-.859-7.608h-.371a.364.364,0,0,1-.364-.364v-3.121a.364.364,0,0,1,.364-.364h4.651a.364.364,0,0,1,.364.364v3.121a.364.364,0,0,1-.364.364h-.247l-.862,7.608a.364.364,0,1,1-.723-.082l.9-7.931a.364.364,0,0,1,.362-.323h.208V680.7h-3.923v2.393h.332a.364.364,0,0,1,.362.323l.9,7.931a.364.364,0,0,1-.321.4Z" transform="translate(-833.46 -679.974)" fill="#0394be" stroke="#0394be" stroke-width="0.4"></path></g></g> <g data-v-4d8de48c="" id="Group_4187" data-name="Group 4187" transform="translate(0.031 0.031)"><g data-v-4d8de48c="" id="Group_4185" data-name="Group 4185" transform="translate(2.336 2.145)"><path data-v-4d8de48c="" id="Path_1066" data-name="Path 1066" d="M849.14,694.025a.33.33,0,0,1-.155-.038l-1.842-.969a.333.333,0,1,1,.31-.589l1.842.969a.333.333,0,0,1-.155.628Z" transform="translate(-846.965 -692.39)" fill="#0394be" stroke="#0394be" stroke-width="0.4"></path></g> <g data-v-4d8de48c="" id="Group_4186" data-name="Group 4186"><path data-v-4d8de48c="" id="Path_1067" data-name="Path 1067" d="M835.56,691.868a.333.333,0,0,1-.33-.3l-.862-7.636h-.4a.333.333,0,0,1-.333-.333v-3.121a.333.333,0,0,1,.333-.333h4.651a.333.333,0,0,1,.333.333V683.6a.333.333,0,0,1-.333.333h-.275l-.865,7.636a.333.333,0,0,1-.662-.075l.9-7.931a.333.333,0,0,1,.331-.3h.239v-2.455H834.3v2.455h.363a.333.333,0,0,1,.331.3l.9,7.931a.333.333,0,0,1-.294.368Z" transform="translate(-833.636 -680.15)" fill="#0394be" stroke="#0394be" stroke-width="0.4"></path></g></g></g> <g data-v-4d8de48c="" id="Group_4189" data-name="Group 4189" transform="translate(10.073 18.333)"><path data-v-4d8de48c="" id="Path_1068" data-name="Path 1068" d="M883.808,722.02a.364.364,0,0,1-.361-.325l-.5-4.68c0-.013,0-.027,0-.04a.364.364,0,0,1,.726-.038l.5,4.68a.378.378,0,0,1,0,.04.364.364,0,0,1-.325.361Z" transform="translate(-882.942 -716.612)" fill="#0394be" stroke="#0394be" stroke-width="0.4"></path></g> <g data-v-4d8de48c="" id="Group_4190" data-name="Group 4190" transform="translate(12.452 18.333)"><path data-v-4d8de48c="" id="Path_1069" data-name="Path 1069" d="M896.879,722.02l-.039,0a.363.363,0,0,1-.325-.361.344.344,0,0,1,0-.04l.5-4.68a.364.364,0,0,1,.726.038.374.374,0,0,1,0,.04l-.5,4.68A.364.364,0,0,1,896.879,722.02Z" transform="translate(-896.515 -716.612)" fill="#0394be" stroke="#0394be" stroke-width="0.4"></path></g> <g data-v-4d8de48c="" id="Group_4191" data-name="Group 4191"><path data-v-4d8de48c="" id="Path_1070" data-name="Path 1070" d="M825.839,625.276a.372.372,0,0,1-.061-.005.364.364,0,0,1-.3-.419l.943-5.626a2.58,2.58,0,0,1,1.271-1.821l2.5-1.427a1.686,1.686,0,1,0-1.839-.368c.022.023.046.044.069.065l.153.121a.364.364,0,0,1-.451.571l-.161-.128-.016-.013c-.037-.033-.073-.067-.109-.1a2.4,2.4,0,0,1-.661-1.263,2.4,2.4,0,0,1,4.728-.868,2.374,2.374,0,0,1-1.362,2.621l-2.486,1.422a1.854,1.854,0,0,0-.914,1.31l-.943,5.626A.364.364,0,0,1,825.839,625.276Z" transform="translate(-825.474 -612.023)" fill="#0394be" stroke="#0394be" stroke-width="0.4"></path></g> <g data-v-4d8de48c="" id="Group_4192" data-name="Group 4192" transform="translate(8.727 12.861)"><path data-v-4d8de48c="" id="Path_1071" data-name="Path 1071" d="M880.391,691.588h-3.875a1.25,1.25,0,1,1,0-2.5h3.112a.364.364,0,0,1,0,.728h-3.112a.522.522,0,1,0,0,1.045h3.875a.433.433,0,0,0,.322-.161.727.727,0,0,0,.142-.587l-.468-2.828a1.516,1.516,0,0,0-.747-1.073l-.234-.134a.364.364,0,1,1,.361-.632l.233.133a2.24,2.24,0,0,1,1.1,1.585l.469,2.833a1.455,1.455,0,0,1-.309,1.175A1.159,1.159,0,0,1,880.391,691.588Z" transform="translate(-875.265 -685.398)" fill="#0394be" stroke="#0394be" stroke-width="0.4"></path></g> <g data-v-4d8de48c="" id="Group_4193" data-name="Group 4193" transform="translate(4.848 5.026)"><path data-v-4d8de48c="" id="Path_1072" data-name="Path 1072" d="M857.574,652.09a.364.364,0,0,1-.328-.207l-1.518-3.168a.362.362,0,0,1-.031-.1l-.933-5.623a1.855,1.855,0,0,0-.914-1.313l-.536-.307a.364.364,0,0,1,.362-.632l.535.306a2.578,2.578,0,0,1,1.271,1.825l.925,5.573,1,2.084.04-.237a2.242,2.242,0,0,1,1.1-1.582l2.114-1.209a1.367,1.367,0,1,0-1.865-1.018,1.348,1.348,0,0,0,.245.566,1.383,1.383,0,0,0,.129.15c.02.019.04.039.062.058a.364.364,0,1,1-.482.545c-.032-.029-.063-.058-.094-.089a2.092,2.092,0,1,1,3.539-1.855,2.064,2.064,0,0,1-1.183,2.28l-2.1,1.2a1.516,1.516,0,0,0-.747,1.07l-.23,1.371a.365.365,0,0,1-.308.3A.37.37,0,0,1,857.574,652.09Z" transform="translate(-853.13 -640.695)" fill="#0394be" stroke="#0394be" stroke-width="0.4"></path></g> <g data-v-4d8de48c="" id="Group_4194" data-name="Group 4194" transform="translate(1.4 10.753)"><path data-v-4d8de48c="" id="Path_1073" data-name="Path 1073" d="M833.824,675.253a.364.364,0,0,1-.364-.364v-1.158a.364.364,0,0,1,.728,0v1.158A.364.364,0,0,1,833.824,675.253Z" transform="translate(-833.46 -673.367)" fill="#0394be" stroke="#0394be" stroke-width="0.4"></path></g> <g data-v-4d8de48c="" id="Group_4195" data-name="Group 4195" transform="translate(6.05 10.744)"><path data-v-4d8de48c="" id="Path_1074" data-name="Path 1074" d="M860.356,675.212a.364.364,0,0,1-.364-.364v-1.167a.364.364,0,0,1,.728,0v1.167A.364.364,0,0,1,860.356,675.212Z" transform="translate(-859.992 -673.318)" fill="#0394be" stroke="#0394be" stroke-width="0.4"></path></g> <g data-v-4d8de48c="" id="Group_4196" data-name="Group 4196" transform="translate(0.999 23.272)"><path data-v-4d8de48c="" id="Path_1075" data-name="Path 1075" d="M852.914,745.521H831.54a.364.364,0,1,1,0-.728h21.374a.364.364,0,1,1,0,.728Z" transform="translate(-831.176 -744.793)" fill="#0394be" stroke="#0394be" stroke-width="0.4"></path></g></g></g> <g data-v-4d8de48c="" id="Group_4199" data-name="Group 4199" transform="translate(15.575 7.755)"><path data-v-4d8de48c="" id="Path_1076" data-name="Path 1076" d="M918.786,672.079a.362.362,0,0,1-.257-.107l-3.021-3.021a.364.364,0,0,1,.515-.514l2.764,2.764,2.6-2.6h-2.24a.364.364,0,0,1-.364-.364v-9.507a1.741,1.741,0,0,0-1.739-1.74H914.7a.364.364,0,0,1,0-.728h2.344a2.47,2.47,0,0,1,2.467,2.467v9.142h2.755a.364.364,0,0,1,.257.621l-3.476,3.476A.362.362,0,0,1,918.786,672.079Z" transform="translate(-914.333 -656.265)" fill="#0394be" stroke="#0394be" stroke-width="0.4"></path></g> <g data-v-4d8de48c="" id="Group_4200" data-name="Group 4200" transform="translate(8.871 7.755)"><path data-v-4d8de48c="" id="Path_1077" data-name="Path 1077" d="M883.152,656.993h-6.7a.364.364,0,1,1,0-.728h6.7a.364.364,0,1,1,0,.728Z" transform="translate(-876.084 -656.265)" fill="#0394be" stroke="#0394be" stroke-width="0.4"></path></g> <text data-v-4d8de48c="" id="_1.1M" data-name="1.1M" transform="translate(9.412 5.511)" fill="#0394be" font-size="5" font-family="SegoeUI, Segoe UI"><tspan data-v-4d8de48c="" x="0" y="0">1.1M</tspan></text></g> <path data-v-4d8de48c="" id="Path_1093" data-name="Path 1093" d="M1146.1,3910.174a18,18,0,1,0,13.232,30.2c.361-.392.709-.8,1.033-1.224a.547.547,0,0,0-.061-.734,2.924,2.924,0,0,0-.495-.36c-.215.3-.437.591-.67.875h0c-.136.164-.278.321-.42.48-.04.045-.079.092-.12.137-.025.028-.049.058-.074.086-.113.122-.232.239-.348.358-.055.055-.108.111-.162.166-.126.126-.256.247-.386.368-.08.075-.16.151-.242.225-.111.1-.225.2-.338.292s-.221.187-.334.279c-.091.073-.183.145-.275.216q-.219.17-.443.332l-.2.14q-.281.2-.569.382l-.1.063a16.8,16.8,0,0,1-7.127,2.511c-.056.006-.112.016-.169.021-.072.007-.144.011-.216.017-.505.045-1.013.074-1.524.074-.246,0-.489-.011-.732-.021-.049,0-.1,0-.146,0-.188-.01-.374-.027-.56-.043-.117-.009-.235-.018-.351-.03-.165-.018-.329-.041-.493-.063-.137-.019-.275-.036-.411-.058s-.294-.052-.441-.079-.305-.058-.457-.092c-.131-.028-.26-.059-.39-.089q-.254-.062-.5-.13-.166-.045-.331-.094c-.191-.056-.38-.118-.569-.181-.084-.028-.169-.056-.252-.085-.229-.081-.456-.168-.681-.259l-.124-.049a16.96,16.96,0,0,1-8.222-7.227l-.044-.075q-.142-.25-.275-.5c-.021-.04-.041-.081-.062-.121q-.373-.726-.676-1.491c-.037-.093-.075-.186-.11-.28-.045-.119-.086-.24-.128-.36s-.086-.249-.127-.375q-.052-.16-.1-.322c-.047-.156-.091-.312-.134-.47-.022-.083-.046-.165-.067-.249q-.192-.757-.314-1.541c-.007-.044-.012-.088-.019-.132-.034-.226-.062-.454-.087-.682-.005-.048-.01-.1-.015-.144-.024-.246-.043-.494-.057-.743,0-.021,0-.043,0-.064-.014-.282-.024-.565-.024-.851a16.906,16.906,0,1,1,33.813,0c0,.286-.009.571-.024.855,0,.009,0,.018,0,.027-.014.278-.035.555-.063.831,0,.017,0,.034-.006.051-.025.244-.057.487-.093.729-.006.041-.011.081-.017.121q-.056.356-.127.709c-.013.068-.028.135-.042.2q-.063.3-.137.592c-.011.046-.021.091-.033.137-.059.226-.124.45-.191.674-.02.064-.04.13-.061.194-.073.231-.15.461-.233.688v0c-.088.242-.184.481-.283.719l-.034.081a16.874,16.874,0,0,1-.791,1.62.547.547,0,0,0,.955.534,18.006,18.006,0,0,0-15.724-26.768Z" transform="translate(169.896 225.826)" fill="#0394be" stroke="#0394be" stroke-width="0.5"></path></g></svg>