<svg data-v-5e6cffd2="" xmlns="http://www.w3.org/2000/svg" width="14.468" height="9.071" viewBox="0 0 14.468 9.071"><path data-v-5e6cffd2="" id="Path_754" data-name="Path 754" d="M418.654,316.586l-3.894-6.229a.9.9,0,0,0-.286-.285.887.887,0,0,0-1.217.285l-2.642,4.225-.234-.375-.932-1.49a.9.9,0,0,0-.286-.285.887.887,0,0,0-1.218.285l-.7,1.117-1.72,2.751a.885.885,0,0,0,.751,1.354H417.9a.885.885,0,0,0,.75-1.354Zm-11.844.174C409.329,316.641,409.3,316.7,406.81,316.76Zm10.561,0Z" transform="translate(-404.893 -309.37)" fill="#1c94be" stroke="#1c94be" stroke-width="1"></path></svg>