<svg data-v-4d8de48c="" xmlns="http://www.w3.org/2000/svg" width="36" height="36" viewBox="0 0 36 36"><g data-v-4d8de48c="" transform="translate(-251.918 -332.075)"><circle data-v-4d8de48c="" cx="18" cy="18" r="18" transform="translate(251.919 332.075)" fill="#0066b8"></circle> <path data-v-4d8de48c="" d="M280.864,375.325a16,16,0,1,1,13.982-22.012,16.926,16.926,0,1,0-8.235,20.616A15.959,15.959,0,0,1,280.864,375.325Z" transform="translate(-8.804 -8.735)" fill="#ff486b"></path> <g data-v-4d8de48c="" transform="translate(256.622 336.032)"><path data-v-4d8de48c="" d="M279.267,374.761c-5.228-1.64-6.416-6.006-5.11-6.2s1.968,5.256,9.254,5.095c3.393-.076,6.944-2.36,11.507.716.16-.159.315-.324.468-.489-1.983-2.274-5.51-5.27-9.945-4.6-6.979,1.051-8.055-4.77-4.9-7.145.3-.272-.6-1.6-1.312-1.844-.329-.115-.3.331-.107.532,1.268,1.347-1.4,3.216-3.261,1.772s-3.091-1.533-4.606-1.092a2.376,2.376,0,0,0-.358.14,4.83,4.83,0,0,1,5.464-.115c1.121.872,2.514-.091,1.3-1.345-.872-.9-.81-1.462.087-1.519a3.258,3.258,0,0,1,2.994,1.779c1.316,2.122,2.084,1.7,1.328.268-.629-1.191.815-1.174,1.623.621,1.577,3.5,3.322,6.03,5.411,5.482,1.389-.364.381-1.625,1.395-1.678s1.326,1.423,2.861,1.435c1.42.011-.008-1.522,1.063-1.783.8-.2.789.759,2.089.613s-.018-2.027.355-2.256c.549-.336.384.579,1.228.572,1.114-.008.676-9.076-6.033-13.517a12.238,12.238,0,0,0-4.111-1.931,14.384,14.384,0,0,0-4.409-.689,14.634,14.634,0,0,0-13.166,21.013l0-.005c2.8,6.026,8.89,9.321,15.12,6.8a12.752,12.752,0,0,1,8.9-.533c.116-.106.228-.215.34-.324C289.314,371.81,283.819,376.19,279.267,374.761Zm2.869-19.435a7.47,7.47,0,0,1,4.785,5.069c.561,1.553,1.228,1.938.972.444-.3-1.763,1.481-2.228,1.935-1.011s1.878,1.3.928-.985c-.872-2.1-.078-2.241-.078-2.241s1.122-.7,2.527,1.944c.794,1.493,1.982.7,1.125-1.093s.014-2.5,1.1-1.544c1.191,1.047.673-2.369-2.949-5.386-.118-.1-.239-.194-.363-.287a15.669,15.669,0,0,1,3.574,3.544c2.067,3,1.063,5.452.688,4.477s-1.573-.637-.711,1.152-.842,3.132-1.729,1.7a8.071,8.071,0,0,0-1.666-2.233c-.385-.283-1.034-.477.107,1.95s-1.1,3.057-1.56,1.843-1.879-1.643-1.7-.142-1.719,1.909-2.41.142c-1.243-3.175-2.692-5.891-5.494-6.676a10.134,10.134,0,0,0-10.1,3.231C273.9,355.685,278.825,354.109,282.135,355.326Z" transform="translate(-268.914 -347.577)" fill="#fff"></path></g></g></svg>