<svg id="圖層_1" data-name="圖層 1" xmlns="http://www.w3.org/2000/svg" viewBox="0 0 15.02 15.63"><defs><style>.cls-1{fill:#ffb824;}</style></defs><path id="Path_385" data-name="Path 385" class="cls-1" d="M5.26,8.17a3.16,3.16,0,0,0,2.2-3.34.56.56,0,0,0-.62-.49l-.12,0-.45.15a.55.55,0,0,0-.39.55A1.6,1.6,0,0,1,4.76,6.69a1.66,1.66,0,0,1-2-.76,3,3,0,0,1,1.69-4l.13-.05a3.13,3.13,0,0,1,2.33.16,3,3,0,0,1,1.4,1.39A4.34,4.34,0,0,1,6.13,9.09a.52.52,0,0,0-.29.66l.15.44a.56.56,0,0,0,.71.35l0,0A5.86,5.86,0,0,0,10,3.29h0A4.46,4.46,0,0,0,7.66.67,4.7,4.7,0,0,0,4.11.42,4.54,4.54,0,0,0,1.16,6.17h0A3.24,3.24,0,0,0,4.23,8.33,2.78,2.78,0,0,0,5.26,8.17Z" transform="translate(-0.93 -0.19)"/><path id="Path_386" data-name="Path 386" class="cls-1" d="M15.41,5.47l-.47,0a.56.56,0,0,0-.58.5,9.71,9.71,0,0,1-1.95,5,10,10,0,0,1-4.47,3.36.54.54,0,0,0-.33.68l.15.44a.57.57,0,0,0,.71.35h0a11.72,11.72,0,0,0,5.19-3.88,11.4,11.4,0,0,0,2.25-5.83.53.53,0,0,0-.46-.6Z" transform="translate(-0.93 -0.19)"/><path id="Path_387" data-name="Path 387" class="cls-1" d="M12.09,9.35a.54.54,0,0,0-.22-.74l0,0-.42-.19a.55.55,0,0,0-.73.23A7.53,7.53,0,0,1,4.12,12.3a.56.56,0,0,0-.58.5l0,.46a.54.54,0,0,0,.51.59h.22a9,9,0,0,0,4.52-1.2A8.75,8.75,0,0,0,12.09,9.35Z" transform="translate(-0.93 -0.19)"/></svg>