<svg data-v-4d8de48c="" xmlns="http://www.w3.org/2000/svg" width="36.5" height="36.5" viewBox="0 0 36.5 36.5"><g data-v-4d8de48c="" id="Group_4219" data-name="Group 4219" transform="translate(-1529.87 -3621.748)"><g data-v-4d8de48c="" id="Group_4217" data-name="Group 4217" transform="translate(1541.823 3625.486)"><g data-v-4d8de48c="" id="Group_4213" data-name="Group 4213" transform="translate(0.938 19.59)"><path data-v-4d8de48c="" id="Path_1086" data-name="Path 1086" d="M1578.662,3714.606a.547.547,0,0,1-.418-.9l3.286-3.894a.547.547,0,0,1,.836.705l-3.285,3.895A.545.545,0,0,1,1578.662,3714.606Z" transform="translate(-1578.116 -3709.619)" fill="#0394be" stroke="#0394be" stroke-width="0.5"></path></g> <g data-v-4d8de48c="" id="Group_4214" data-name="Group 4214" transform="translate(4.042 8.507)"><path data-v-4d8de48c="" id="Path_1087" data-name="Path 1087" d="M1596.8,3688.022a.547.547,0,0,1-.524-.393l-1.831-6.239a1.809,1.809,0,0,0-.412-.677l-3.582-3.616-.032-.036a2.378,2.378,0,0,1-.519-1.613l.252-6.165c0-.012,0-.023,0-.035a1.918,1.918,0,0,1,2.093-1.7.635.635,0,0,1,.086.016,1.9,1.9,0,0,1,1.635,2.018l-.3,6.811a2.212,2.212,0,0,1-.809,1.585l1.951,1.97a2.914,2.914,0,0,1,.675,1.119l1.836,6.254a.547.547,0,0,1-.371.678A.53.53,0,0,1,1596.8,3688.022Zm-5.553-11.676.845.854a1.19,1.19,0,0,0,.488-.851l.3-6.826a.814.814,0,0,0-.727-.879c-.022,0-.044-.006-.065-.011a.808.808,0,0,0-.842.715L1591,3675.5A1.309,1.309,0,0,0,1591.25,3676.347Z" transform="translate(-1589.9 -3667.539)" fill="#0394be" stroke="#0394be" stroke-width="0.5"></path></g> <g data-v-4d8de48c="" id="Group_4215" data-name="Group 4215" transform="translate(7.373 7.176)"><path data-v-4d8de48c="" id="Path_1088" data-name="Path 1088" d="M1610.46,3667.813a.551.551,0,0,1-.155-.023l-3.656-1.077-.039-.013-.038-.015a3.891,3.891,0,0,1-1.5-.9l-2.367-2.36a.547.547,0,0,1,.772-.775l2.376,2.369a2.907,2.907,0,0,0,1.1.647l.021.007,3.636,1.072a.547.547,0,0,1-.154,1.071Z" transform="translate(-1602.547 -3662.487)" fill="#0394be" stroke="#0394be" stroke-width="0.5"></path></g> <g data-v-4d8de48c="" id="Group_4216" data-name="Group 4216" transform="translate(0)"><path data-v-4d8de48c="" id="Path_1089" data-name="Path 1089" d="M1575.1,3650.484a.567.567,0,0,1-.12-.014.547.547,0,0,1-.414-.653l.94-4.193a3.426,3.426,0,0,1,1.785-2.342l5.079-2.85.032-.017a2.126,2.126,0,1,0-2.3-.553q.04.044.082.085l.19.163a.547.547,0,1,1-.712.83l-.2-.174-.024-.021c-.047-.046-.094-.094-.138-.143a3.18,3.18,0,0,1-.81-1.714,3.2,3.2,0,1,1,4.4,2.5l-5.08,2.851a2.348,2.348,0,0,0-1.235,1.611l-.942,4.2A.546.546,0,0,1,1575.1,3650.484Z" transform="translate(-1574.554 -3635.241)" fill="#0394be" stroke="#0394be" stroke-width="0.5"></path></g></g> <g data-v-4d8de48c="" id="Group_4218" data-name="Group 4218" transform="translate(1530.12 3621.998)"><path data-v-4d8de48c="" id="Path_1090" data-name="Path 1090" d="M1548.12,3658a17.991,17.991,0,1,1,15.724-9.233.547.547,0,1,1-.955-.534A16.911,16.911,0,1,0,1534.5,3650a5.233,5.233,0,0,1,2.768-.767,4.713,4.713,0,0,1,3.134,1.007,3.735,3.735,0,0,0,2.389.714,3.9,3.9,0,0,0,2.371-.734,5.012,5.012,0,0,1,3.067-.986,4.712,4.712,0,0,1,3.134,1.007,3.735,3.735,0,0,0,2.389.714,3.9,3.9,0,0,0,2.371-.734,5.011,5.011,0,0,1,3.067-.986,4.714,4.714,0,0,1,3.135,1.007.546.546,0,0,1,.061.734c-.324.421-.672.833-1.033,1.225A18.054,18.054,0,0,1,1548.12,3658Zm-12.939-7.131a16.9,16.9,0,0,0,25.367.592c.21-.228.416-.463.614-.7a4.411,4.411,0,0,0-1.972-.427,3.9,3.9,0,0,0-2.37.735,5.012,5.012,0,0,1-3.067.986,4.712,4.712,0,0,1-3.134-1.007,3.736,3.736,0,0,0-2.389-.714,3.907,3.907,0,0,0-2.371.735,5.009,5.009,0,0,1-3.067.986,4.711,4.711,0,0,1-3.134-1.007,3.737,3.737,0,0,0-2.389-.714A4.157,4.157,0,0,0,1535.181,3650.867Z" transform="translate(-1530.12 -3621.998)" fill="#0394be" stroke="#0394be" stroke-width="0.5"></path></g></g></svg>