<svg data-v-4d8de48c="" xmlns="http://www.w3.org/2000/svg" width="36.5" height="36.501" viewBox="0 0 36.5 36.501"><g data-v-4d8de48c="" id="Group_4222" data-name="Group 4222" transform="translate(-1521.75 -4088.75)"><g data-v-4d8de48c="" id="Layer_1" data-name="Layer 1" transform="translate(1528.6 4095.6)"><g data-v-4d8de48c="" id="Group_4203" data-name="Group 4203" transform="translate(17.216 0.058)"><g data-v-4d8de48c="" id="Group_4202" data-name="Group 4202"><path data-v-4d8de48c="" id="Path_1078" data-name="Path 1078" d="M1166.791,613.015a.45.45,0,1,1,.9,0V614.1h1.088a.45.45,0,1,1,0,.9h-1.088v1.089a.45.45,0,0,1-.9,0V615H1165.7a.45.45,0,0,1,0-.9h1.089Z" transform="translate(-1165.252 -612.564)" fill="#0394be" stroke="#0394be" stroke-width="0.5"></path></g></g> <g data-v-4d8de48c="" id="Group_4207" data-name="Group 4207" transform="translate(6.8 14.154)"><g data-v-4d8de48c="" id="Group_4205" data-name="Group 4205" transform="translate(0 0.044)"><path data-v-4d8de48c="" id="Path_1080" data-name="Path 1080" d="M1116.182,719.352a.53.53,0,0,1,.55-.544.519.519,0,0,1,.551.544v1.586l1.806-1.924a.576.576,0,0,1,.426-.206.534.534,0,0,1,.543.529c0,.191-.117.345-.36.587l-1.388,1.366,1.7,1.769a.8.8,0,0,1,.309.558.512.512,0,0,1-.573.506c-.214,0-.353-.125-.558-.345l-1.9-2.056V723.6a.527.527,0,0,1-.551.528.514.514,0,0,1-.55-.528Z" transform="translate(-1116.182 -718.808)" fill="#0394be" stroke="#0394be" stroke-width="0.5"></path></g> <g data-v-4d8de48c="" id="Group_4206" data-name="Group 4206" transform="translate(4.28)"><path data-v-4d8de48c="" id="Path_1081" data-name="Path 1081" d="M1136.779,720.857c.462,0,.646.235.646.7a2.324,2.324,0,0,1-2.394,2.482,2.708,2.708,0,0,1,0-5.4c1.109,0,2.019.521,2.019,1.035a.465.465,0,0,1-.455.514c-.5,0-.6-.536-1.564-.536-.917,0-1.38.8-1.38,1.689s.448,1.689,1.38,1.689a1.147,1.147,0,0,0,1.249-1.16h-.75a.507.507,0,1,1,0-1.013Z" transform="translate(-1132.506 -718.64)" fill="#0394be" stroke="#0394be" stroke-width="0.5"></path></g></g> <g data-v-4d8de48c="" id="Group_4208" data-name="Group 4208" transform="translate(8.956 6.259)"><path data-v-4d8de48c="" id="Path_1082" data-name="Path 1082" d="M1118.7,652.875a.373.373,0,0,1-.053,0,.347.347,0,0,1-.29-.4.753.753,0,0,0-.33-.811l-2.124-1.287a.346.346,0,1,1,.359-.593l2.121,1.285a1.446,1.446,0,0,1,.659,1.511A.346.346,0,0,1,1118.7,652.875Z" transform="translate(-1115.74 -649.736)" fill="#0394be" stroke="#0394be" stroke-width="0.5"></path></g> <g data-v-4d8de48c="" id="Group_4209" data-name="Group 4209" transform="translate(0 0)"><path data-v-4d8de48c="" id="Path_1083" data-name="Path 1083" d="M1083.177,635.021h-19.451a1.677,1.677,0,0,1-1.675-1.675v-4.507a1.677,1.677,0,0,1,1.675-1.674h2.549c-.158-1.235-.646-5.023-.772-5.844a1.446,1.446,0,0,1,.662-1.513l4.794-2.889a2.138,2.138,0,1,0-3.172-1.865,2.156,2.156,0,0,0,.9,1.755.346.346,0,0,1-.4.564,2.82,2.82,0,1,1,3.022.143l-4.79,2.886a.753.753,0,0,0-.332.813c.152.989.8,6.037.825,6.252a.347.347,0,0,1-.344.39h-2.943a.983.983,0,0,0-.982.982v4.507a.983.983,0,0,0,.982.982h19.451a.983.983,0,0,0,.982-.982v-4.107a.983.983,0,0,0-.982-.982.346.346,0,1,1,0-.693,1.676,1.676,0,0,1,1.674,1.674v4.107A1.676,1.676,0,0,1,1083.177,635.021Z" transform="translate(-1062.051 -612.216)" fill="#0394be" stroke="#0394be" stroke-width="0.5"></path></g> <g data-v-4d8de48c="" id="Group_4210" data-name="Group 4210" transform="translate(15.806 7.518)"><path data-v-4d8de48c="" id="Path_1084" data-name="Path 1084" d="M1158.614,665.751l-.046,0a.346.346,0,0,1-.3-.389c.026-.2.643-4.839.773-5.686a.6.6,0,0,0-.258-.644l-1.82-1.1a.346.346,0,1,1,.359-.592l1.816,1.1a1.285,1.285,0,0,1,.588,1.344c-.129.839-.764,5.623-.77,5.672A.347.347,0,0,1,1158.614,665.751Z" transform="translate(-1156.798 -657.285)" fill="#0394be" stroke="#0394be" stroke-width="0.5"></path></g> <g data-v-4d8de48c="" id="Group_4211" data-name="Group 4211" transform="translate(12.455 2.159)"><path data-v-4d8de48c="" id="Path_1085" data-name="Path 1085" d="M1137.526,631.462a.346.346,0,0,1-.179-.643l2.7-1.625a1.781,1.781,0,1,0-2.641-1.554,1.8,1.8,0,0,0,.752,1.462.346.346,0,1,1-.4.564,2.464,2.464,0,1,1,2.64.125l-2.689,1.621A.343.343,0,0,1,1137.526,631.462Z" transform="translate(-1136.71 -625.16)" fill="#0394be" stroke="#0394be" stroke-width="0.5"></path></g></g> <g data-v-4d8de48c="" id="Blue_Gird" data-name="Blue Gird" transform="translate(1529.867 4096.868)"><rect data-v-4d8de48c="" id="Rectangle_4123" data-name="Rectangle 4123" width="20.26" height="20.26" transform="translate(20.26 0) rotate(90)" fill="none"></rect></g> <path data-v-4d8de48c="" id="Path_1091" data-name="Path 1091" d="M1146.1,3910.174a18,18,0,1,0,13.232,30.2c.362-.391.709-.8,1.033-1.224a.547.547,0,0,0-.061-.734,2.93,2.93,0,0,0-.495-.36c-.215.3-.437.591-.67.874h0c-.136.164-.278.322-.42.48-.04.046-.079.093-.12.137-.025.028-.049.058-.074.085-.113.123-.232.24-.348.359-.054.054-.108.111-.162.166-.127.126-.256.248-.386.369-.08.075-.16.151-.242.225-.111.1-.225.2-.338.292s-.221.187-.334.279c-.091.073-.183.145-.275.215-.146.114-.293.224-.443.333l-.2.139q-.281.2-.569.382l-.1.063a16.789,16.789,0,0,1-7.127,2.511c-.056.007-.112.016-.169.022s-.144.01-.216.017c-.505.045-1.013.074-1.524.074-.245,0-.489-.011-.732-.021l-.146,0c-.188-.01-.374-.027-.56-.042-.117-.009-.235-.018-.351-.03-.165-.018-.329-.041-.493-.063-.137-.019-.275-.036-.411-.058s-.294-.051-.441-.079-.305-.058-.457-.091c-.131-.028-.26-.059-.39-.089q-.254-.062-.5-.13-.166-.045-.331-.094c-.191-.056-.381-.118-.569-.181-.084-.028-.169-.056-.252-.085-.229-.081-.456-.168-.681-.259l-.124-.049a16.96,16.96,0,0,1-8.222-7.227l-.044-.075q-.142-.25-.275-.505c-.021-.04-.041-.08-.062-.121q-.373-.726-.676-1.491c-.037-.093-.075-.186-.11-.28-.044-.119-.086-.239-.128-.359s-.086-.249-.127-.375c-.035-.107-.068-.214-.1-.322-.047-.156-.091-.313-.134-.47-.022-.083-.046-.166-.067-.249q-.192-.758-.314-1.541c-.007-.044-.012-.088-.019-.132-.034-.226-.062-.454-.087-.682-.005-.048-.01-.1-.015-.144-.024-.246-.043-.494-.057-.743,0-.021,0-.042,0-.064-.014-.282-.024-.565-.024-.851a16.907,16.907,0,1,1,33.813,0c0,.285-.009.571-.024.855,0,.009,0,.018,0,.027-.014.278-.035.555-.063.831l-.006.051q-.038.365-.093.729c-.006.041-.011.081-.017.121q-.056.356-.127.709c-.013.068-.028.136-.042.2-.042.2-.088.4-.137.592-.011.045-.021.091-.033.136-.059.226-.124.45-.191.674-.02.064-.04.13-.061.195-.073.231-.15.461-.233.688v0c-.088.242-.184.481-.283.719l-.034.081a16.96,16.96,0,0,1-.791,1.62.547.547,0,0,0,.955.534,18.007,18.007,0,0,0-15.725-26.769Z" transform="translate(393.896 178.826)" fill="#0394be" stroke="#0394be" stroke-width="0.5"></path></g></svg>